<svg id="Layer_2" xmlns="http://www.w3.org/2000/svg" viewBox="0 0 1080 1080">
    <defs>
        <style>
            .cls-1{fill:#f2f2f2;}.cls-2{fill:#965f5f;}.cls-3{fill:#bfbdbe;}.cls-4{fill:#731e1c;}.cls-5{fill:none;stroke:#8c8c8c;stroke-linecap:round;stroke-miterlimit:10;stroke-width:3px;}.cls-6{font-size:87.57px;fill:#8c8c8c;font-family:Arya-Regular,
            Arya;}
        </style>
    </defs>
    <title>We Educate Final Logo</title>
    <rect class="cls-1" width="1080" height="1080"/>
    <line x1="505.36" y1="445.98" x2="505.13" y2="446.13"/>
    <line x1="499.65" y1="507.77" x2="499.57" y2="507.82"/>
    <line x1="494.02" y1="568.94" x2="494" y2="568.96"/>
    <line x1="499.65" y1="507.77" x2="499.64" y2="507.86"/>
    <line x1="505.36" y1="445.98" x2="505.33" y2="446.23"/>
    <line x1="351.46" y1="672.51" x2="351.4" y2="673.48"/>
    <polygon class="cls-2" points="337.49 620.64 308.25 641.05 326.68 579.57 337.49 620.64"/>
    <polygon class="cls-2" points="360.73 527.56 355.4 610.95 337.52 543.02 360.73 527.56"/>
    <line x1="351.4" y1="673.48" x2="351.06" y2="672.22"/>
    <polygon class="cls-3"
             points="505.13 446.13 450.66 482.65 416.63 505.46 385.57 526.29 385.57 526.3 385.47 526.36 373.2 519.34 361.81 512.82 426.42 470.18 480.41 434.56 505.13 446.13"/>
    <polygon class="cls-3"
             points="410.9 462.19 344.99 503.2 324.22 516.12 322.49 496.59 327.74 493.33 392.77 452.86 410.9 462.19"/>
    <line x1="406.66" y1="400.03" x2="406.45" y2="399.93"/>
    <polygon class="cls-3" points="499.57 507.82 411.76 569.64 414.2 537.47 475.71 495.54 499.57 507.82"/>
    <polygon class="cls-4"
             points="385.47 526.36 383.51 558.38 375.13 689.39 351.46 672.51 351.06 672.22 337.49 620.64 326.68 579.57 308.25 641.05 286.33 625.09 269.11 459.78 290.62 472.08 290.63 472.22 293.27 497.61 301.28 574.4 314.7 529.66 337.39 542.94 337.52 543.02 355.4 610.95 360.73 527.56 361.81 512.82 373.2 519.34 385.47 526.36"/>
    <polygon class="cls-3"
             points="406.47 400.14 318.77 454.71 290.74 472.16 290.62 472.08 269.11 459.78 385.45 390.1 406.45 399.93 406.47 400.14"/>
    <polygon class="cls-2"
             points="411.88 469.19 351.36 506.85 314.7 529.66 301.28 574.4 293.27 497.61 290.63 472.22 290.74 472.16 318.77 454.71 406.47 400.14 408.49 425.93 321.04 480.34 321.9 489.99 322.49 496.59 324.22 516.12 344.99 503.2 410.9 462.19 411.88 469.19"/>
    <polygon class="cls-2"
             points="414.2 537.47 411.76 569.64 499.57 507.82 499.64 507.86 496.82 538.37 473.25 555.5 409.3 601.94 406.77 635.23 494 568.96 491.29 598.39 404.4 666.46 375.13 689.39 383.51 558.38 385.47 526.36 385.57 526.3 385.57 526.29 416.63 505.46 450.66 482.65 505.13 446.13 505.33 446.23 502.47 477.31 475.71 495.54 414.2 537.47"/>
    <polygon class="cls-3" points="494 568.94 494 568.96 406.77 635.23 409.3 601.94 473.25 555.5 494 568.94"/>
    <line x1="494.02" y1="568.94" x2="494" y2="568.94"/>
    <polygon class="cls-3"
             points="426.42 470.18 361.81 512.82 360.73 527.56 337.52 543.02 337.39 542.94 314.7 529.66 351.36 506.85 411.88 469.19 417.59 465.64 426.42 470.18"/>
    <line class="cls-5" x1="523.49" y1="427.47" x2="523.49" y2="654.07"/>
    <text class="cls-6" transform="translate(539.81 507.65)">We
        <tspan x="0" y="86.03">Educate</tspan>
    </text>
</svg>